<svg xmlns="http://www.w3.org/2000/svg" viewBox="0 0 27.269 27.269" width="256" height="256"><path d="M25.322 1.947H1.949C.869 1.947 0 2.818 0 3.898v19.477c0 1.074.869 1.947 1.949 1.947h23.373c1.07 0 1.947-.873 1.947-1.947V3.898a1.95 1.95 0 00-1.947-1.951zM9.312 3.41a.974.974 0 11-.002 1.948.974.974 0 01.002-1.948zm-2.982 0a.975.975 0 110 1.946.975.975 0 010-1.946zm-2.924 0a.973.973 0 11.004 1.946.973.973 0 01-.004-1.946zm21.916 19.965H1.949V6.838h23.373v16.537z" fill="#4F4FBF"/><path d="M14.797 15.566L5.844 20.16v-1.332l7.602-3.781v-.039l-7.602-3.782V9.894l8.953 4.572v1.1zm6.625-1.232v1.232h-4.764v-1.232h4.764z" fill="#4F4FBF"/></svg>