<svg xmlns="http://www.w3.org/2000/svg" viewBox="0 0 512 512"><path d="M13 322h96v150H13zm130-60h96v210h-96zm130-60h96v270h-96z" fill="#ffcb57"/><path fill="#7f7fef" d="M403 142h96v330h-96z"/><path d="M13 322v150h16V338h64v134h16V322H13zm130-60v210h16V278h64v194h16V262h-96zm130-60v270h16V218h64v254h16V202h-96zm130-60v330h16V158h64v314h16V142h-96zM327.951 21.332c-4.358.003-8.013 3.315-8.437 7.707-.461 4.693 2.977 8.866 7.662 9.318l46.568 4.516L64.248 221.561c-4.079 2.355-5.478 7.568-3.123 11.656a8.52 8.52 0 007.398 4.267 8.488 8.488 0 004.258-1.144L382.266 57.658l-19.37 42.574a8.526 8.526 0 004.233 11.3 8.408 8.408 0 003.533.767c3.243 0 6.35-1.86 7.766-5l30.234-66.46c.011-.021.02-.045.031-.068.055-.11.103-.223.153-.335.06-.135.122-.269.175-.407.043-.11.078-.223.116-.336l.008-.023c.043-.13.089-.26.126-.393.038-.133.069-.269.1-.404v-.006l.016-.06.002-.008c.021-.098.044-.196.062-.295a8.563 8.563 0 00.078-.531v-.012c.008-.062.022-.121.028-.184.002-.027.001-.054.004-.082.013-.152.02-.304.025-.457l.002-.107c.002-.103.009-.205.008-.307-.002-.14-.013-.28-.022-.422l-.008-.088c-.008-.114-.012-.23-.025-.343-.015-.133-.04-.265-.062-.397l-.012-.07-.002-.012c-.02-.114-.035-.23-.059-.342-.027-.126-.064-.25-.097-.375l-.02-.076-.006-.017c-.032-.117-.06-.235-.097-.35-.037-.112-.082-.222-.123-.334l-.004-.012-.002-.007-.008-.022-.004-.01a8.501 8.501 0 00-.168-.422c-.04-.09-.084-.178-.127-.267a8.543 8.543 0 00-.045-.092c-.064-.129-.127-.258-.197-.383-.019-.033-.032-.067-.051-.1-.033-.057-.073-.107-.107-.163a8.58 8.58 0 00-.467-.692l-.055-.068a8.557 8.557 0 00-.47-.567l-.08-.082a8.536 8.536 0 00-.298-.302 8.473 8.473 0 00-.293-.268 8.534 8.534 0 00-.582-.47c-.024-.019-.05-.036-.074-.053a8.505 8.505 0 00-.644-.42l-.04-.022a8.443 8.443 0 00-.724-.375c-.002 0-.004 0-.006-.002-.002 0-.004-.003-.006-.004l-.02-.01-.017-.007a8.423 8.423 0 00-.687-.276l-.196-.068c-.083-.027-.167-.05-.252-.074a8.56 8.56 0 00-.654-.164c-.032-.007-.065-.012-.098-.018l-.05-.01c-.088-.016-.175-.035-.264-.048a8.374 8.374 0 00-.592-.073h-.01l-.007-.002-.139-.011-72.793-7.057a8.72 8.72 0 00-.88-.045zM13 488h486v16H13z" fill="#3f3a34"/></svg>