<svg xmlns="http://www.w3.org/2000/svg" viewBox="0 0 496 496"><path fill="#FFCB57" d="M352 56H144c-4.416 0-8-3.584-8-8V16c0-4.416 3.584-8 8-8h208c4.416 0 8 3.584 8 8v32c0 4.416-3.584 8-8 8zm0 80H144c-4.416 0-8-3.584-8-8V96c0-4.416 3.584-8 8-8h208c4.416 0 8 3.584 8 8v32c0 4.416-3.584 8-8 8zm0 80H144c-4.416 0-8-3.584-8-8v-32c0-4.416 3.584-8 8-8h208c4.416 0 8 3.584 8 8v32c0 4.416-3.584 8-8 8zm-56 184h-48l-19.312-19.312c-3-3-7.072-4.688-11.312-4.688H200c-8.84 0-16 7.16-16 16v80c0 8.84 7.16 16 16 16h96c8.84 0 16-7.16 16-16v-56c0-8.84-7.16-16-16-16zm-176 0H72l-19.312-19.312c-3-3-7.072-4.688-11.312-4.688H24c-8.84 0-16 7.16-16 16v80c0 8.84 7.16 16 16 16h96c8.84 0 16-7.16 16-16v-56c0-8.84-7.16-16-16-16zm352 0h-48l-19.312-19.312c-3-3-7.072-4.688-11.312-4.688H376c-8.84 0-16 7.16-16 16v80c0 8.84 7.16 16 16 16h96c8.84 0 16-7.16 16-16v-56c0-8.84-7.16-16-16-16z"/><path fill="#3F3A34" d="M368 208v-32c0-8.824-7.176-16-16-16h-24v-16h24c8.824 0 16-7.176 16-16V96c0-8.824-7.176-16-16-16h-24V64h24c8.824 0 16-7.176 16-16V16c0-8.824-7.176-16-16-16H144c-8.824 0-16 7.176-16 16v32c0 8.824 7.176 16 16 16h24v16h-24c-8.824 0-16 7.176-16 16v32c0 8.824 7.176 16 16 16h24v16h-24c-8.824 0-16 7.176-16 16v32c0 8.824 7.176 16 16 16h208c8.824 0 16-7.176 16-16zM144 16h208l.008 32H144V16zm40 48h128v16H184V64zm-40 32h208l.008 32H144V96zm40 48h128v16H184v-16zm-40 32h208l.008 32H144v-32zm152 216h-44.688l-16.968-16.968c-4.528-4.536-10.56-7.032-16.976-7.032H200c-13.232 0-24 10.768-24 24v80c0 13.232 10.768 24 24 24h96c13.232 0 24-10.768 24-24v-56c0-13.232-10.768-24-24-24zm0 88h-96c-4.408 0-8-3.584-8-8v-80c0-4.416 3.592-8 8-8h17.368c2.136 0 4.152.832 5.664 2.344L244.688 408H296c4.408 0 8 3.584 8 8v8h-96v16h96v32c0 4.416-3.592 8-8 8zm-176-88H75.312l-16.968-16.968C53.816 370.496 47.784 368 41.368 368H24c-13.232 0-24 10.768-24 24v80c0 13.232 10.768 24 24 24h96c13.232 0 24-10.768 24-24v-56c0-13.232-10.768-24-24-24zm0 88H24c-4.408 0-8-3.584-8-8v-80c0-4.416 3.592-8 8-8h17.368c2.136 0 4.152.832 5.664 2.344L68.688 408H120c4.408 0 8 3.584 8 8v8H32v16h96v32c0 4.416-3.592 8-8 8zm352-88h-44.688l-16.968-16.968c-4.528-4.536-10.56-7.032-16.976-7.032H376c-13.232 0-24 10.768-24 24v80c0 13.232 10.768 24 24 24h96c13.232 0 24-10.768 24-24v-56c0-13.232-10.768-24-24-24zm0 88h-96c-4.408 0-8-3.584-8-8v-80c0-4.416 3.592-8 8-8h17.368c2.136 0 4.152.832 5.664 2.344L420.688 408H472c4.408 0 8 3.584 8 8v8h-96v16h96v32c0 4.416-3.592 8-8 8zM240 240h16v80h-16zm176-96v184h16V144c0-22.056-17.944-40-40-40h-8v16h8c13.232 0 24 10.768 24 24zm-336 0c0-13.232 10.768-24 24-24h8v-16h-8c-22.056 0-40 17.944-40 40v184h16V144z"/><path fill="#7f7fef" d="M248 360c-13.232 0-24-10.768-24-24s10.768-24 24-24 24 10.768 24 24-10.768 24-24 24zm0-32c-4.408 0-8 3.584-8 8s3.592 8 8 8c4.408 0 8-3.584 8-8s-3.592-8-8-8zm176 40c-13.232 0-24-10.768-24-24s10.768-24 24-24 24 10.768 24 24-10.768 24-24 24zm0-32c-4.408 0-8 3.584-8 8s3.592 8 8 8 8-3.584 8-8-3.592-8-8-8zM72 368c-13.232 0-24-10.768-24-24s10.768-24 24-24 24 10.768 24 24-10.768 24-24 24zm0-32c-4.408 0-8 3.584-8 8s3.592 8 8 8 8-3.584 8-8-3.592-8-8-8z"/></svg>