<svg xmlns="http://www.w3.org/2000/svg" viewBox="0 0 512 512" width="256" height="256"><path d="M128.708 496.704a272.436 272.436 0 00-19.691-161.707l19.499-8.661a294.487 294.487 0 0122.859 164.331h207.189l-27.296-81.963a10.657 10.657 0 01-.228-5.951c1.427-5.716 7.217-9.193 12.932-7.766.448.085 40.117 9.771 68.715.224 20.907-6.976 19.093-59.659 14.933-84.085a10.684 10.684 0 01-.152-1.794c.001-5.891 4.778-10.666 10.669-10.664h38.688c7.638 0 13.837-6.176 13.867-13.813a13.703 13.703 0 00-2.389-7.755l-53.664-79.083a10.738 10.738 0 01-1.621-8.149 142.786 142.786 0 00-26.933-109.013c-32.192-39.499-89.589-59.52-170.613-59.52V0c87.753 0 150.687 22.667 187.156 67.371a162.25 162.25 0 0132.064 122.176l51.264 75.562a35.201 35.201 0 016.023 19.644c.026 19.44-15.713 35.221-35.153 35.247h-26.485c2.827 26.368 4.629 83.595-30.944 95.477a146.592 146.592 0 01-62.24 3.552l26.325 78.933c.362 1.088.547 2.227.547 3.373-.001 5.891-4.778 10.666-10.669 10.664H138.692c-.663 0-1.325-.062-1.976-.184-5.789-1.09-9.599-6.667-8.509-12.456z" fill="#4f4fbf"/><path d="M181.359 85.333c53.019 0 96 42.981 96 96s-42.981 96-96 96c-52.993-.065-95.935-43.007-96-96 0-53.019 42.98-96 96-96zm0 170.667c41.237 0 74.667-33.429 74.667-74.667 0-41.237-33.429-74.667-74.667-74.667-41.218.047-74.62 33.449-74.667 74.667 0 41.238 33.429 74.667 74.667 74.667z" fill="#4f4fbf"/><path d="M224.025 181.333h21.333c-.035 35.332-28.668 63.965-64 64V224c23.565 0 42.667-19.102 42.667-42.667zm-42.666-64v21.333c-23.564 0-42.667 19.102-42.667 42.667h-21.333c.035-35.331 28.668-63.964 64-64z" fill="#4f4fbf"/><path d="M8.932 149.493l39.296-6.56A137.732 137.732 0 0160.111 114.4L36.922 81.941a10.667 10.667 0 011.141-13.739l30.176-30.176a10.667 10.667 0 0113.739-1.141l32.459 23.189a137.745 137.745 0 0128.523-11.872l6.549-39.296a10.668 10.668 0 0110.517-8.907h42.666a10.665 10.665 0 0110.517 8.907l6.549 39.296a137.718 137.718 0 0128.533 11.872l32.459-23.189a10.667 10.667 0 0113.739 1.141l30.176 30.176a10.667 10.667 0 011.141 13.739L302.617 114.4a137.745 137.745 0 0111.872 28.523l39.296 6.56A10.668 10.668 0 01362.692 160v42.667a10.666 10.666 0 01-8.907 10.507l-39.296 6.56a137.732 137.732 0 01-11.883 28.533l23.189 32.459a10.667 10.667 0 01-1.141 13.739l-30.176 30.176a10.667 10.667 0 01-13.739 1.141l-32.459-23.189a137.745 137.745 0 01-28.523 11.872l-6.549 39.296a10.668 10.668 0 01-10.517 8.907h-42.667a10.666 10.666 0 01-10.507-8.907l-6.56-39.296a137.718 137.718 0 01-28.533-11.872l-32.459 23.189a10.667 10.667 0 01-13.739-1.141L38.05 294.465a10.667 10.667 0 01-1.141-13.739l23.189-32.459a137.745 137.745 0 01-11.872-28.523l-39.296-6.56a10.668 10.668 0 01-8.907-10.517V160a10.671 10.671 0 018.909-10.507zm12.427 44.139l37.237 6.24c4.25.711 7.654 3.91 8.629 8.107a116.703 116.703 0 0014.667 35.2 10.666 10.666 0 01-.363 11.851l-21.963 30.752 17.387 17.387 30.752-21.963a10.67 10.67 0 0111.851-.363 116.703 116.703 0 0035.2 14.667 10.669 10.669 0 018.107 8.629l6.197 37.195h24.597l6.24-37.237a10.665 10.665 0 018.107-8.629 116.703 116.703 0 0035.2-14.667 10.666 10.666 0 0111.851.363l30.752 21.963 17.387-17.387-21.963-30.752a10.667 10.667 0 01-.363-11.851 116.703 116.703 0 0014.667-35.2 10.669 10.669 0 018.629-8.107l37.195-6.197v-24.597l-37.195-6.24a10.666 10.666 0 01-8.629-8.107 116.703 116.703 0 00-14.667-35.2 10.666 10.666 0 01.363-11.851l21.963-30.752-17.387-17.387-30.795 21.963a10.67 10.67 0 01-11.851.363 116.703 116.703 0 00-35.2-14.667 10.669 10.669 0 01-8.107-8.629l-6.197-37.195H169.06l-6.24 37.195a10.665 10.665 0 01-8.107 8.629 116.703 116.703 0 00-35.2 14.667 10.666 10.666 0 01-11.851-.363L76.91 59.542 59.523 76.929l21.963 30.752a10.67 10.67 0 01.363 11.851 116.703 116.703 0 00-14.667 35.2 10.669 10.669 0 01-8.629 8.107l-37.195 6.197v24.596z" fill="#4f4fbf"/></svg>