<svg xmlns="http://www.w3.org/2000/svg" viewBox="0 0 512 512"><circle cx="255.87" cy="256.12" r="65.996" fill="#FFCB57"/><path d="M255.98 359.19c-56.973 0-103.16-46.185-103.16-103.16s46.185-103.16 103.16-103.16V10.04h-44.837v38.872a210.64 210.64 0 00-70.126 29.059l-27.4-27.4-63.203 63.25 27.377 27.377a210.627 210.627 0 00-29.057 70.126H10.013v89.417h38.72a210.665 210.665 0 0029.057 70.126l-27.377 27.377 63.203 63.25 27.4-27.4a210.63 210.63 0 0070.126 29.059v38.823l44.837.025.001-142.81z" fill="#FFCB57"/><path d="M205.66 128.4c5.138-2.027 7.658-7.835 5.631-12.972s-7.834-7.661-12.972-5.631c-29.005 11.447-53.76 31.094-71.586 56.818-18.254 26.338-27.901 57.259-27.901 89.416 0 5.523 4.478 9.999 9.999 9.999 5.522 0 9.999-4.477 9.999-9.999 0-56.715 34.083-106.81 86.83-127.63zm116.21 117.73c-5.522 0-9.999 4.477-9.999 9.999 0 30.876-25.119 55.997-55.997 55.997s-55.997-25.121-55.997-55.997 25.119-55.997 55.997-55.997c5.522 0 9.999-4.477 9.999-9.999s-4.478-9.999-9.999-9.999c-41.903 0-75.995 34.091-75.995 75.995s34.092 75.995 75.995 75.995 75.995-34.091 75.995-75.995c0-5.522-4.477-9.999-9.999-9.999zm27.07 9.62v.377c0 5.523 4.478 9.999 9.999 9.999s9.999-4.477 9.999-9.999v-.377c0-5.523-4.478-9.999-9.999-9.999s-9.999 4.476-9.999 9.999zm-44.6 81.19a10.058 10.058 0 00-2.93 7.07c0 2.63 1.069 5.21 2.93 7.07s4.43 2.92 7.07 2.92c2.63 0 5.21-1.06 7.069-2.92a10.077 10.077 0 002.931-7.07c0-2.64-1.07-5.21-2.931-7.07a10.029 10.029 0 00-7.069-2.93 10.043 10.043 0 00-7.07 2.93z" fill="#3F3A34"/><path d="M464.79 370.33l-32.304-33.389a10.003 10.003 0 00-7.071-2.929h-72.914c-5.522 0-9.999 4.477-9.999 9.999s4.478 9.999 9.999 9.999h68.771l29.379 30.464z" fill="#3f3a34"/><path d="M413.85 451.1l-33.655-59.795a10 10 0 00-8.768-5.193h-105.44v-26.921c0-5.523-4.478-9.999-9.999-9.999-51.368 0-93.158-41.79-93.158-93.158 0-50.746 40.787-92.139 91.299-93.134a9.993 9.993 0 001.751.163c38.701 0 73.766 24.36 87.255 60.615a10.002 10.002 0 009.372 6.516 9.994 9.994 0 003.486-.63c5.176-1.926 7.811-7.683 5.885-12.858-5.467-14.695-13.863-27.768-24.356-38.684h87.903c2.652 0 5.195-1.054 7.071-2.929l32.846-32.304-14.137-14.145-29.921 29.379h-109.42c-13.901-7.949-29.512-12.998-45.878-14.483v-18.075h105.44a10 10 0 008.755-5.168l32.556-59.95-15.474-13.353-31.74 58.471h-99.538V10.041c0-5.523-4.478-9.999-9.999-9.999h-44.838c-5.522 0-9.999 4.477-9.999 9.999v30.943a219.704 219.704 0 00-58.662 24.311L120.691 43.5a9.996 9.996 0 00-14.144.003l-63.203 63.25c-3.903 3.906-3.902 10.234.002 14.138l21.771 21.772a219.74 219.74 0 00-24.309 58.662h-30.79c-5.522 0-9.999 4.477-9.999 9.999v89.417c0 5.523 4.478 9.999 9.999 9.999H40.81a219.654 219.654 0 0024.309 58.661l-21.771 21.772c-3.904 3.904-3.905 10.232-.002 14.138l63.203 63.25a10.004 10.004 0 007.071 2.932h.002c2.652 0 5.195-1.054 7.071-2.929l21.795-21.794a219.784 219.784 0 0058.661 24.311v30.894c0 5.521 4.474 9.996 9.993 9.999h44.843c2.651 0 5.194-1.028 7.069-2.902a10.003 10.003 0 002.931-7.073V406.11h99.52l32.855 58.334zm-167.87 40.896l-24.838-.014v-28.828a10 10 0 00-7.899-9.776c-23.822-5.118-46.296-14.431-66.799-27.681a10 10 0 00-12.498 1.328l-20.327 20.328-49.067-49.104 20.31-20.31a9.999 9.999 0 001.327-12.498c-13.249-20.503-22.562-42.976-27.678-66.798a10 10 0 00-9.776-7.9H20.012v-69.418h28.721a10 10 0 009.776-7.9c5.117-23.822 14.429-46.295 27.678-66.798a9.999 9.999 0 00-1.327-12.498l-20.31-20.31 49.067-49.104 20.327 20.328a10 10 0 0012.498 1.328c20.502-13.249 42.976-22.563 66.799-27.681a10 10 0 007.899-9.776V20.041h24.839v123.27c-57.727 5.08-103.16 53.695-103.16 112.72s45.43 107.64 103.16 112.72z" fill="#3f3a34"/><path d="M450.37 246.16h-34.383c-5.522 0-9.999 4.477-9.999 9.999 0 5.523 4.478 9.999 9.999 9.999h34.382z" fill="#3f3a34"/><path d="M478.1 428.88c-17.648 0-32-14.352-32-32s14.352-32 32-32 32 14.352 32 32-14.352 32-32 32zm0-48c-8.824 0-16 7.176-16 16s7.176 16 16 16 16-7.176 16-16-7.176-16-16-16zm0-92.47c-17.648 0-32-14.352-32-32s14.352-32 32-32 32 14.352 32 32-14.352 32-32 32zm0-48c-8.824 0-16 7.176-16 16s7.176 16 16 16 16-7.176 16-16-7.176-16-16-16zm-.11-93.11c-17.648 0-32-14.352-32-32s14.352-32 32-32 32 14.352 32 32-14.352 32-32 32zm0-48c-8.824 0-16 7.176-16 16s7.176 16 16 16 16-7.176 16-16-7.176-16-16-16zm-54-33.47c-17.648 0-32-14.352-32-32s14.352-32 32-32 32 14.352 32 32-14.352 32-32 32zm0-48c-8.824 0-16 7.176-16 16s7.176 16 16 16 16-7.176 16-16-7.176-16-16-16zm-.13 492.41c-17.648 0-32-14.352-32-32s14.352-32 32-32 32 14.352 32 32-14.352 32-32 32zm0-48c-8.824 0-16 7.176-16 16s7.176 16 16 16 16-7.176 16-16-7.176-16-16-16z" fill="#7f7fef"/></svg>