<svg xmlns="http://www.w3.org/2000/svg" viewBox="0 0 496 496"><path fill="#FFCB57" d="M216 280H24c-8.84 0-16 7.16-16 16v104h224V296c0-8.84-7.16-16-16-16zm256 0H280c-8.84 0-16 7.16-16 16v104h224V296c0-8.84-7.16-16-16-16zM168 168h160c4.416 0 8 3.584 8 8v32c0 4.416-3.584 8-8 8H168c-4.416 0-8-3.584-8-8v-32c0-4.416 3.584-8 8-8zm0-80h160c4.416 0 8 3.584 8 8v32c0 4.416-3.584 8-8 8H168c-4.416 0-8-3.584-8-8V96c0-4.416 3.584-8 8-8zm0-80h160c4.416 0 8 3.584 8 8v32c0 4.416-3.584 8-8 8H168c-4.416 0-8-3.584-8-8V16c0-4.416 3.584-8 8-8z"/><path fill="#7f7fef" d="M416 256c-13.232 0-24-10.768-24-24s10.768-24 24-24 24 10.768 24 24-10.768 24-24 24zm0-32c-4.408 0-8 3.592-8 8s3.592 8 8 8 8-3.592 8-8-3.592-8-8-8zm56 0c-13.232 0-24-10.768-24-24s10.768-24 24-24 24 10.768 24 24-10.768 24-24 24zm0-32c-4.408 0-8 3.592-8 8s3.592 8 8 8 8-3.592 8-8-3.592-8-8-8zM80 256c-13.232 0-24-10.768-24-24s10.768-24 24-24 24 10.768 24 24-10.768 24-24 24zm0-32c-4.408 0-8 3.592-8 8s3.592 8 8 8 8-3.592 8-8-3.592-8-8-8zm-56 0c-13.232 0-24-10.768-24-24s10.768-24 24-24 24 10.768 24 24-10.768 24-24 24zm0-32c-4.408 0-8 3.592-8 8s3.592 8 8 8 8-3.592 8-8-3.592-8-8-8z"/><path fill="#3F3A34" d="M0 440c0 13.232 10.768 24 24 24h40v16H32v16h176v-16h-32v-16h40c13.232 0 24-10.768 24-24v-24H0v24zm160 40H80v-16h80v16zM16 432h208v8c0 4.408-3.592 8-8 8H24c-4.408 0-8-3.592-8-8v-8zm200-160H24c-13.232 0-24 10.768-24 24v104h16V296c0-4.408 3.592-8 8-8h192c4.408 0 8 3.592 8 8v104h16V296c0-13.232-10.768-24-24-24zm40 168c0 13.232 10.768 24 24 24h40v16h-32v16h176v-16h-32v-16h40c13.232 0 24-10.768 24-24v-24H256v24zm160 40h-80v-16h80v16zm-144-48h208v8c0 4.408-3.592 8-8 8H280c-4.408 0-8-3.592-8-8v-8zm200-160H280c-13.232 0-24 10.768-24 24v104h16V296c0-4.408 3.592-8 8-8h192c4.408 0 8 3.592 8 8v104h16V296c0-13.232-10.768-24-24-24zm-304-48h160c8.824 0 16-7.176 16-16v-32c0-8.824-7.176-16-16-16h-8v-16h8c8.824 0 16-7.176 16-16V96c0-8.824-7.176-16-16-16h-8V64h8c8.824 0 16-7.176 16-16V16c0-8.824-7.176-16-16-16H168c-8.824 0-16 7.176-16 16v32c0 8.824 7.176 16 16 16h8v16h-8c-8.824 0-16 7.176-16 16v32c0 8.824 7.176 16 16 16h8v16h-8c-8.824 0-16 7.176-16 16v32c0 8.824 7.176 16 16 16zm-.008-208H328v32H168l-.008-32zM192 64h112v16H192V64zm-24.008 32H328v32H168l-.008-32zM192 144h112v16H192v-16zm-24 32h160v32H168l-.008-32H168zm296-88v72h16V88c0-22.056-17.944-40-40-40h-80v16h80c13.232 0 24 10.768 24 24z"/><path fill="#3F3A34" d="M408 104v88h16v-88c0-13.232-10.768-24-24-24h-40v16h40c4.408 0 8 3.592 8 8zM32 88c0-13.232 10.768-24 24-24h80V48H56c-22.056 0-40 17.944-40 40v72h16V88z"/><path fill="#3F3A34" d="M72 104v88h16v-88c0-4.408 3.592-8 8-8h40V80H96c-13.232 0-24 10.768-24 24z"/></svg>