<svg xmlns="http://www.w3.org/2000/svg" viewBox="0 0 496 496"><path d="M349.58 345.86c-2.664-12.288-7.528-23.744-14.12-33.992l8.704-17.408-22.624-22.624-17.408 8.704c-10.248-6.592-21.704-11.456-33.992-14.12l-6.144-18.424h-32l-6.136 18.416c-12.288 2.664-23.744 7.528-33.992 14.12l-17.408-8.704-22.624 22.624 8.704 17.408c-6.592 10.248-11.456 21.704-14.12 33.992l-18.424 6.144v16h80c0-22.088 17.912-40 40-40s40 17.912 40 40h80v-16l-18.416-6.136z" fill="#FFCB57"/><g fill="#3F3A34"><path d="M0 408c0 22.056 17.944 40 40 40h112v32h-32v16h256v-16h-32v-32h112c22.056 0 40-17.944 40-40v-24H0v24zm328 72H168v-32h160v32zM16 400h464v8c0 13.232-10.768 24-24 24H40c-13.232 0-24-10.768-24-24v-8zM456 72h-56v16h56c13.232 0 24 10.768 24 24v256h16V112c0-22.056-17.944-40-40-40zM16 112c0-13.232 10.768-24 24-24h56V72H40C17.944 72 0 89.944 0 112v256h16V112zm360 256v-21.768l-19.672-6.56a110.372 110.372 0 00-11.728-28.208l9.296-18.584-30.784-30.784-18.584 9.296a111.302 111.302 0 00-28.2-11.728L269.768 240H226.24l-6.56 19.664a111.012 111.012 0 00-28.2 11.728l-18.584-9.296-30.784 30.784 9.296 18.584c-5.216 8.872-9.152 18.328-11.728 28.208l-19.68 6.56V368h16v-10.232l17.264-5.76.968-4.448c2.416-11.128 6.808-21.672 13.032-31.36l2.472-3.832-8.168-16.328 14.472-14.472 16.32 8.168 3.832-2.464c9.688-6.232 20.24-10.616 31.368-13.032l4.448-.968 5.76-17.272h20.472l5.76 17.264 4.448.968c11.128 2.416 21.68 6.808 31.368 13.032l3.832 2.464 16.32-8.168 14.472 14.472-8.168 16.328 2.472 3.832c6.224 9.688 10.616 20.24 13.032 31.36l.968 4.448L360 357.768V368h16z"/><path d="M328 368c0-44.112-35.888-80-80-80s-80 35.888-80 80h16c0-35.288 28.712-64 64-64s64 28.712 64 64h16z"/><path d="M248 320c-26.472 0-48 21.528-48 48h16c0-17.648 14.352-32 32-32s32 14.352 32 32h16c0-26.472-21.528-48-48-48zM128 16h192v56h64V52.688L331.312 0H112v296h16V16zm208 11.312L364.688 56H336V27.312zM368 88h16v208h-16z"/><path d="M304 48V32H144v96h208V88h-16v24H160V48z"/></g><path d="M144 144h16v16h-16zm32 0h176v16H176zm160 64h16v16h-16zm-192 0h176v16H144zm0-32h208v16H144z" fill="#7f7fef"/></svg>